<?xml version="1.0" encoding="utf-8"?>
<svg xmlns="http://www.w3.org/2000/svg" id="Layer_1" data-name="Layer 1" width="1000" height="1500" viewBox="0 0 1000 1500">
  <title>REMIX-RED</title>
  <rect x="-208.32726" y="-8.34943" width="1416.32726" height="1516.69691" fill="#c00"/>
  <polygon points="64.354 1040.44 64.354 912.814 47.471 912.976 47.471 1057.327 64.354 1040.44" fill="#ad0000"/>
  <polygon points="30.562 1074.24 30.562 913.137 13.68 913.298 13.68 1091.128 30.562 1074.24" fill="#ad0000"/>
  <polygon points="241.076 959.329 288.863 911.542 241.109 911.542 217.2 935.454 241.076 959.329" fill="#ad0000"/>
  <polygon points="336.689 911.543 264.99 983.241 288.865 1007.117 384.439 911.543 336.689 911.543" fill="#ad0000"/>
  <polygon points="336.653 1054.906 480.018 911.542 432.266 911.542 312.777 1031.03 336.653 1054.906" fill="#ad0000"/>
  <polygon points="384.421 1102.674 575.555 911.543 527.804 911.543 360.548 1078.799 384.421 1102.674" fill="#ad0000"/>
  <polygon points="432.211 1150.463 671.132 911.543 623.38 911.543 408.335 1126.587 432.211 1150.463" fill="#ad0000"/>
  <polygon points="718.958 911.542 456.123 1174.376 480.001 1198.251 766.71 911.542 718.958 911.542" fill="#ad0000"/>
  <polygon points="527.788 1246.04 862.287 911.542 814.536 911.542 503.912 1222.166 527.788 1246.04" fill="#ad0000"/>
  <polygon points="551.691 1269.943 575.566 1293.818 957.845 911.539 910.094 911.542 551.691 1269.943" fill="#ad0000"/>
  <polygon points="623.356 1341.607 1053.423 911.539 1005.672 911.539 599.48 1317.731 623.356 1341.607" fill="#ad0000"/>
  <polygon points="671.144 1389.396 1149 911.54 1101.249 911.54 647.267 1365.521 671.144 1389.396" fill="#ad0000"/>
  <path d="M-20.11176,913.62151v211.24461l-16.89481,16.89481V913.7821l-16.88292.16205v244.69971l-16.90816,16.9082V914.10624l-16.88292.16059V1192.435l-5.79464,5.79468,310.10947,310.11691H407.63845L2.02607,1102.72979l-5.2549,5.2549V913.46091Zm1216.93816-2.08178-501.76947,501.768,23.86865,23.8686v.15915L193.179,911.58289l-10.54847.0996v10.44737l-16.90824,16.9082v-27.195l-16.88139.16209v43.9143l-16.91124,16.9097V912.16727l-16.88138.162v77.3828L98.146,1006.61436v-94.123l-16.88293.16059v110.875l16.42642-16.43236,501.24154,501.25192h136.876v-88.03531l16.91115-16.91265v104.948h16.88138V1386.51714l16.90825-16.90816v138.73759h16.88438v-155.622l16.90824-16.9082v172.53021h16.88283V1318.93344l16.90226-16.90226v206.31539H870.967V1285.14976l16.9097-16.90968v240.10649h16.88292V1251.35866l16.9097-16.9097v273.89761h16.88138V1217.56606l16.9097-16.9082v307.68871h16.88147V1183.77493l16.89627-16.89631v341.46795h16.88138V1149.99719l16.9097-16.90965v375.259h16.88292V1116.20612l16.9097-16.9097v409.05015h16.88147V1082.41349l16.90961-16.90969v442.84277h16.88147V1048.62092l16.90225-16.9008v476.62645H1141.281V1014.83574l16.90824-16.9082v510.419h16.88293v-527.302l16.90815-16.9082v544.21016h16.019V911.53973Z" fill="#ad0000"/>
  <rect x="-208.32726" y="506.20429" width="685.20947" height="67.53392" fill="#ad0000"/>
  <polygon points="-208.327 915.421 -208.327 1465.687 -165.668 1508.347 25.329 1508.347 -189.131 1293.881 -205.959 1310.708 -205.959 915.399 -208.327 915.421" fill="#ad0000"/>
  <polygon points="747.794 910.822 747.766 910.846 1018.264 910.846 1018.283 910.822 1208 721.116 1208 450.625 747.794 910.822" fill="#ad0000"/>
  <polygon points="1125.576 -8.349 476.881 640.327 476.881 641.316 -208.327 641.316 -208.327 708.843 476.881 708.844 476.881 776.482 -208.327 776.482 -208.327 844.012 476.881 844.012 476.881 910.822 1208 179.721 1208 -8.349 1125.576 -8.349" fill="#ad0000"/>
  <polygon points="312.487 -8.349 333.666 12.829 313.398 33.098 476.885 33.098 476.882 -8.349 312.487 -8.349" fill="#ad0000"/>
  <polygon points="585.336 -8.349 476.881 100.105 476.881 168.236 476.881 235.871 110.641 235.871 118.635 227.878 -24.725 84.513 -24.725 132.268 94.752 251.746 70.84 275.657 -24.725 180.093 -24.725 227.845 46.962 299.534 43.09 303.405 476.881 303.405 476.881 370.6 855.83 -8.349 585.336 -8.349" fill="#ad0000"/>
  <polygon points="-24.725 323.421 -0.817 347.332 23.058 323.456 -24.725 275.671 -24.725 323.421" fill="#ad0000"/>
  <path d="M-130.24816-8.34943l-.00892,379.38841h-78.06975v67.53015H476.87964V371.039H-24.73662L-24.7262-5.18057V36.72779l167.256,167.25588,23.87312-23.8731L-22.05266-8.34943Zm251.59771,0,116.747,116.74851-23.91176,23.91176L73.526-8.34943H25.77385L190.30869,156.18693l-12.04881,12.04886H476.87964l-.00295-67.52571-231.07027-.003L261.98153,84.532,169.10171-8.34943Z" fill="#ad0000"/>
  <polygon points="216.928 -8.349 285.895 60.619 309.771 36.744 264.677 -8.349 216.928 -8.349" fill="#ad0000"/>
</svg>